<?xml version="1.0" standalone="no"?>
<!DOCTYPE svg PUBLIC "-//W3C//DTD SVG 20010904//EN"
 "http://www.w3.org/TR/2001/REC-SVG-20010904/DTD/svg10.dtd">
<svg version="1.0" xmlns="http://www.w3.org/2000/svg"
 width="700.000000pt" height="700.000000pt" viewBox="0 0 700.000000 700.000000"
 preserveAspectRatio="xMidYMid meet">
<metadata>
Created by potrace 1.14, written by Peter Selinger 2001-2017
</metadata>
<g transform="translate(0.000000,700.000000) scale(0.100000,-0.100000)"
fill="#000000" stroke="none">
<path d="M1570 3496 l0 -3498 68 8 c37 4 81 8 97 9 17 1 32 3 35 4 3 1 23 4
45 5 22 2 63 6 91 10 58 8 116 14 194 20 30 2 101 9 158 16 57 6 144 13 195
16 51 2 117 6 147 8 30 2 121 7 202 11 92 5 148 12 151 19 2 6 3 671 3 1478
-1 808 1 1468 4 1468 4 0 11 -15 17 -32 45 -125 185 -522 234 -663 33 -93 71
-199 84 -235 13 -36 48 -135 78 -220 151 -429 202 -573 275 -780 44 -124 108
-304 142 -400 34 -96 74 -211 90 -255 16 -44 50 -141 76 -215 26 -74 51 -139
56 -144 4 -6 41 -11 80 -12 79 -1 302 -13 383 -19 235 -18 395 -32 465 -40 19
-2 67 -7 105 -10 39 -4 81 -8 95 -10 14 -2 50 -6 80 -9 56 -7 91 -11 168 -21
l42 -6 0 3501 0 3500 -692 -2 -693 -3 0 -1537 c0 -845 -3 -1534 -6 -1530 -3 4
-43 113 -88 242 -46 129 -119 336 -163 460 -44 124 -106 302 -139 395 -58 163
-83 235 -148 418 -16 45 -95 269 -176 497 -80 228 -152 431 -160 450 -7 19
-50 141 -95 270 -46 129 -91 258 -101 285 l-19 50 -690 0 -690 0 0 -3499z"/>
</g>
</svg>
